<?xml version="1.0" encoding="UTF-8"?>
<svg width="26px" height="26px" viewBox="0 0 26 26" version="1.1" xmlns="http://www.w3.org/2000/svg" xmlns:xlink="http://www.w3.org/1999/xlink">
    <!-- Generator: Sketch 55.2 (78181) - https://sketchapp.com -->
    <title>Fill 13</title>
    <desc>Created with Sketch.</desc>
    <g id="website" stroke="none" stroke-width="1" fill="none" fill-rule="evenodd">
        <g id="home" transform="translate(-351.000000, -693.000000)" fill="#000000" stroke="#000000">
            <g id="Group-5" transform="translate(295.000000, 95.000000)">
                <g id="Group-6" transform="translate(1.000000, 69.000000)">
                    <path d="M67.7958973,530.720542 L67.7958973,530.148148 C64.5401056,530.147825 61.5877968,531.475713 59.45498,533.619564 C57.321199,535.762527 55.9996787,538.729042 56,542.000323 C55.9996787,545.270796 57.321199,548.237714 59.4548996,550.380354 C61.5877968,552.524609 64.5401056,553.852659 67.7958973,553.851852 C70.3582664,553.852659 72.734223,553.029187 74.6682533,551.633323 L74.3364068,551.168304 L74.1628503,551.713248 L79.2570554,553.348081 C79.4667695,553.415089 79.6965712,553.354539 79.8460227,553.193882 C79.9962776,553.032417 80.0412738,552.797485 79.96012,552.592425 L77.9786831,547.549874 L77.449175,547.759778 L77.938508,548.052837 C78.9878821,546.281566 79.5921159,544.209163 79.5913124,542.000323 C79.5921159,538.729042 78.2703545,535.762527 76.1370556,533.619564 C74.0037568,531.475713 71.051689,530.147825 67.7958973,530.148148 L67.7958973,531.292854 C70.7399301,531.293177 73.40113,532.49052 75.3311427,534.428988 C77.260352,536.368505 78.451946,539.041477 78.4527495,542.000323 C78.451946,543.999259 77.9079749,545.866601 76.9598421,547.467526 C76.8690463,547.620111 76.8545833,547.804988 76.919667,547.969683 L78.4591775,551.890052 L74.5091598,550.623359 C74.3372103,550.567654 74.1507977,550.597525 74.0037568,550.703284 C72.2545321,551.965133 70.1140017,552.707065 67.7958973,552.707872 C64.851061,552.707065 62.1908253,551.509802 60.2605715,549.571415 C58.3312016,547.631413 57.1396075,544.958361 57.1392861,542.000323 C57.1396075,539.041477 58.3312016,536.368505 60.2605715,534.428988 C62.1908253,532.49052 64.851061,531.293177 67.7958973,531.292854 L67.7958973,530.720542" id="Fill-13"></path>
                </g>
            </g>
        </g>
    </g>
</svg>