<?xml version="1.0" encoding="UTF-8"?>
<svg width="30px" height="26px" viewBox="0 0 30 26" version="1.1" xmlns="http://www.w3.org/2000/svg" xmlns:xlink="http://www.w3.org/1999/xlink">
    <!-- Generator: Sketch 55.2 (78181) - https://sketchapp.com -->
    <title>Fill 14</title>
    <desc>Created with Sketch.</desc>
    <g id="website" stroke="none" stroke-width="1" fill="none" fill-rule="evenodd">
        <g id="home" transform="translate(-311.000000, -693.000000)" fill="#000000" stroke="#000000">
            <g id="Group-5" transform="translate(295.000000, 95.000000)">
                <g id="Group-6" transform="translate(1.000000, 69.000000)">
                    <path d="M34.8367259,550.113164 L35.187215,550.561223 C36.9581532,549.126627 38.7673469,547.478901 40.2870854,545.701197 C41.0467959,544.812346 41.7348372,543.890394 42.3090647,542.941801 C42.8830541,541.994015 43.3437853,541.020396 43.6435583,540.026593 C43.8828528,539.233004 44,538.429728 44,537.640176 C44,536.321753 43.6732419,535.042726 43.0474252,533.918462 C42.4221641,532.794198 41.4970506,531.825664 40.3139912,531.129276 C39.2181571,530.483506 37.9834291,530.154526 36.7194936,530.148148 L36.7198111,530.148148 C36.7059217,530.148148 36.6920323,530.148148 36.6783016,530.148148 C35.4280175,530.148148 34.1486053,530.461063 32.9371321,531.084147 C31.7124044,531.713851 30.5564094,532.660668 29.5630395,533.919915 L30.0018652,534.27812 L30.4406909,533.919915 C29.4473209,532.660668 28.291326,531.713851 27.0666777,531.084147 C25.8552838,530.461063 24.575951,530.148148 23.3255081,530.148148 C23.3117774,530.148148 23.297888,530.148148 23.2839986,530.148148 L23.2843161,530.148148 C22.0208568,530.154526 20.7861288,530.483183 19.6896598,531.129276 C18.5019176,531.828248 17.5753756,532.79339 16.9502732,533.913214 C16.3246946,535.032877 16,536.305929 16,537.619993 C16,538.415196 16.118814,539.225739 16.3605689,540.026593 C16.6601831,541.020396 17.120835,541.994015 17.6948244,542.941801 C18.2690519,543.890394 18.9570138,544.812346 19.7168037,545.701197 C21.2364628,547.478901 23.0458152,549.126627 24.8167535,550.560415 C25.465825,551.085976 26.0232265,551.546952 26.5148319,551.945765 C27.2529544,552.543176 27.8401982,553.000923 28.383869,553.327885 C28.6560219,553.490155 28.91873,553.620132 29.1861208,553.711358 C29.4528767,553.802585 29.7257439,553.852638 30.0004365,553.851852 C30.1833798,553.852638 30.3660056,553.830033 30.5460916,553.788053 C30.8618969,553.715395 31.1679399,553.582996 31.4819197,553.407001 C31.9532069,553.141395 32.4488601,552.774068 33.0447551,552.302597 C33.6400945,551.830319 34.3344058,551.251475 35.1871356,550.561223 L34.8367259,550.113164 L34.4863161,549.665912 C33.8315301,550.19551 33.2719063,550.6581 32.7865709,551.051262 C32.0592426,551.641408 31.4962059,552.074127 31.0473005,552.341348 C30.8230859,552.475362 30.628793,552.568203 30.4588661,552.625522 C30.2883837,552.682842 30.1434577,552.707061 30.0004365,552.707868 C29.9051156,552.707061 29.8094771,552.696566 29.7054257,552.672346 C29.5239111,552.630366 29.3146176,552.545598 29.0642116,552.404318 C28.6888009,552.19361 28.2271966,551.857767 27.6496356,551.398406 C27.0715191,550.939852 26.3762554,550.360202 25.5176523,549.665105 C23.7833027,548.261187 22.0210949,546.65302 20.5661207,544.950396 C19.8385542,544.098681 19.1873397,543.224361 18.6530343,542.341967 C18.1184908,541.459574 17.7013326,540.569915 17.4364816,539.690751 C17.2267913,538.995654 17.125359,538.298943 17.125359,537.619993 C17.1255177,536.497262 17.401639,535.422567 17.9287219,534.478657 C18.4563604,533.534908 19.2343256,532.72049 20.2535695,532.11993 C21.1766194,531.576447 22.2136417,531.298812 23.2901099,531.292918 L23.2904274,531.292918 C23.3020151,531.292837 23.3137616,531.292837 23.3255081,531.292837 C24.3911029,531.292837 25.4963817,531.559412 26.5589605,532.105721 C27.6326509,532.657923 28.6637206,533.496641 29.5630395,534.636406 C29.6699482,534.771953 29.8309859,534.850505 30.0018652,534.850505 C30.1727445,534.850505 30.3337822,534.771953 30.4406909,534.636406 C31.3400891,533.496641 32.3710794,532.657923 33.4448492,532.105721 C34.507428,531.559412 35.6128656,531.292837 36.6783016,531.292837 C36.6900481,531.292837 36.7017946,531.292837 36.7133823,531.292918 L36.7136998,531.292918 C37.7904855,531.298812 38.8276666,531.57677 39.7500021,532.119849 C40.7620235,532.716292 41.5395125,533.533293 42.0681034,534.482451 C42.5962181,535.431528 42.8744823,536.513812 42.8745617,537.640176 C42.8745617,538.314282 42.7746374,539.004535 42.567725,539.690751 C42.3027152,540.569915 41.8854776,541.459574 41.3509341,542.341967 C40.8165494,543.224361 40.1653349,544.098681 39.4377684,544.950396 C37.9827148,546.65302 36.2206657,548.261187 34.4862367,549.665912 L34.8367259,550.113164" id="Fill-14"></path>
                </g>
            </g>
        </g>
    </g>
</svg>