<?xml version="1.0" encoding="UTF-8"?>
<svg width="27px" height="27px" viewBox="0 0 27 27" version="1.1" xmlns="http://www.w3.org/2000/svg" xmlns:xlink="http://www.w3.org/1999/xlink">
    <!-- Generator: Sketch 55.2 (78181) - https://sketchapp.com -->
    <title>Fill 17</title>
    <desc>Created with Sketch.</desc>
    <g id="website" stroke="none" stroke-width="1" fill="none" fill-rule="evenodd">
        <g id="home" transform="translate(-701.000000, -693.000000)" fill="#000000" stroke="#000000">
            <g id="Group-5" transform="translate(295.000000, 95.000000)">
                <g id="Group-6" transform="translate(1.000000, 69.000000)">
                    <path d="M430.349541,530.65047 L430.349541,530 L406.650459,530 C406.478899,530 406.311927,530.069359 406.190826,530.190554 C406.069725,530.311657 406,530.479183 406,530.65047 L406,554.350058 C406,554.600521 406.144037,554.828965 406.370642,554.936306 C406.597248,555.044565 406.865138,555.012454 407.059633,554.854654 L418.5,545.58018 L429.93945,554.854654 C430.134862,555.012454 430.402752,555.044565 430.629358,554.937224 C430.855963,554.828965 431,554.600521 431,554.350058 L431,530.65047 C431,530.479183 430.930275,530.311657 430.809174,530.190554 C430.688073,530.069359 430.520183,530 430.349541,530 L430.349541,530.65047 L429.699083,530.65047 L429.699083,552.984896 L418.910092,544.237955 C418.669725,544.043456 418.330275,544.043456 418.090826,544.237955 L407.300917,552.984896 L407.300917,531.300848 L430.349541,531.300848 L430.349541,530.65047 L429.699083,530.65047 L430.349541,530.65047" id="Fill-17"></path>
                </g>
            </g>
        </g>
    </g>
</svg>